<?xml version="1.0" encoding="UTF-8" standalone="no"?>
<!-- Created with Inkscape (http://www.inkscape.org/) -->

<svg
   xmlns:dc="http://purl.org/dc/elements/1.1/"
   xmlns:cc="http://creativecommons.org/ns#"
   xmlns:rdf="http://www.w3.org/1999/02/22-rdf-syntax-ns#"
   xmlns:svg="http://www.w3.org/2000/svg"
   xmlns="http://www.w3.org/2000/svg"
   xmlns:sodipodi="http://sodipodi.sourceforge.net/DTD/sodipodi-0.dtd"
   xmlns:inkscape="http://www.inkscape.org/namespaces/inkscape"
   id="svg7210"
   version="1.1"
   inkscape:version="0.48.5 r10040"
   width="758.74756"
   height="757.53046"
   sodipodi:docname="lbpf.pdf">
  <metadata
     id="metadata7216">
    <rdf:RDF>
      <cc:Work
         rdf:about="">
        <dc:format>image/svg+xml</dc:format>
        <dc:type
           rdf:resource="http://purl.org/dc/dcmitype/StillImage" />
        <dc:title></dc:title>
      </cc:Work>
    </rdf:RDF>
  </metadata>
  <defs
     id="defs7214">
    <clipPath
       clipPathUnits="userSpaceOnUse"
       id="clipPath7730">
      <rect
         style="fill:none;stroke:#000000;stroke-width:0.49296954;stroke-miterlimit:4;stroke-opacity:1;stroke-dasharray:none;stroke-dashoffset:0"
         id="rect7732"
         width="758.74756"
         height="757.53046"
         x="4.6153326"
         y="37.646748" />
    </clipPath>
  </defs>
  <sodipodi:namedview
     pagecolor="#ffffff"
     bordercolor="#666666"
     borderopacity="1"
     objecttolerance="10"
     gridtolerance="10"
     guidetolerance="10"
     inkscape:pageopacity="0"
     inkscape:pageshadow="2"
     inkscape:window-width="1920"
     inkscape:window-height="1005"
     id="namedview7212"
     showgrid="false"
     inkscape:zoom="1.1785268"
     inkscape:cx="284.46541"
     inkscape:cy="423.24705"
     inkscape:window-x="-9"
     inkscape:window-y="-9"
     inkscape:window-maximized="1"
     inkscape:current-layer="svg7210"
     fit-margin-top="0"
     fit-margin-left="0"
     fit-margin-right="0"
     fit-margin-bottom="0" />
  <path
     style="fill:#000000"
     d="m 224.36516,751.94312 c 0,-0.66477 13.31993,-33.26727 29.59986,-72.45 32.13877,-77.35196 33.52621,-80.74131 33.05176,-80.74131 -0.17556,0 -2.04448,2.50504 -4.15317,5.56676 -2.10869,3.06172 -7.53295,9.02756 -12.05392,13.25741 -31.7275,29.68451 -80.38532,32.90907 -115.94453,7.68367 -13.76083,-9.76182 -26.40988,-25.99369 -32.51423,-41.72387 -9.00529,-23.20551 -7.75885,-52.42419 3.16021,-74.08056 4.45722,-8.84023 10.05504,-16.79561 16.36872,-23.26247 4.53996,-4.65011 5.29953,-5.91953 4.46976,-7.46997 -0.94554,-1.76676 -1.52698,-1.648 -10.74205,2.19413 C 22.025752,528.27364 2.4055815,536.1799 5.4484815,533.36658 c 0.35651,-0.32961 58.8056605,-24.6653 133.1364585,-55.43223 11.39588,-4.71698 20.62088,-8.67367 20.5,-8.79265 -0.12088,-0.11898 -2.24478,0.17502 -4.71978,0.65334 -7.30241,1.41126 -24.48433,1.0804 -32.79216,-0.63146 -34.587088,-7.1268 -62.071218,-32.96743 -71.397448,-67.12799 -3.18603,-11.66995 -3.17426,-34.49861 0.0239,-46.28379 8.67189,-31.95612 32.27265,-56.19635 63.869148,-65.59967 10.12946,-3.0146 29.96539,-4.32511 39.29659,-2.59623 3.025,0.56047 5.62715,0.89418 5.78256,0.74157 0.25485,-0.25024 -11.58404,-4.94126 -12.78256,-5.06493 -0.275,-0.0284 -1.4,-0.55166 -2.5,-1.16284 -1.86233,-1.03475 -37.76737,-16.03335 -108.500008,-45.32365 -16.225,-6.71875 -29.6875005,-12.39104 -29.9166705,-12.60508 -0.22916,-0.21404 -0.19178,-0.61405 0.0831,-0.88891 0.48923,-0.48922 14.3191405,5.15815 97.3335985,39.74568 22.55,9.39533 41.7875,17.03652 42.75,16.9804 0.9625,-0.0561 1.75,0.27114 1.75,0.72724 0,0.70361 3.85949,2.56252 10,4.81647 0.825,0.30283 -1.2,-1.48018 -4.5,-3.96223 -7.04829,-5.30129 -16.7808,-15.3527 -21.3489,-22.04841 -4.90426,-7.18843 -10.87657,-20.3235 -13.30381,-29.25941 -3.13139,-11.52823 -3.12509,-34.51515 0.0126,-45.99999 16.97868,-62.14693 88.7508,-88.755992 141.95193,-52.62779 8.37521,5.6875 18.55359,16.11404 24.49865,25.09595 2.7419,4.14251 4.73728,6.85684 4.43418,6.03184 -0.3031,-0.825 -15.01426,-36.31613 -32.69148,-78.869192 C 238.74117,41.329568 224.4583,6.0045678 224.67866,5.3826178 c 0.48062,-1.35651 -2.12217,-7.43124 30.36475,70.8691902 14.60452,35.200002 27.95886,67.369652 29.67632,71.488112 3.08273,7.39235 4.53745,7.58009 3.19271,0.41203 -0.42535,-2.26731 -1.20582,-3.41074 -2.34255,-3.43194 -1.58447,-0.0296 -1.58128,-0.12549 0.0453,-1.36025 1.315,-0.99823 1.75327,-2.79245 1.76314,-7.21819 0.0177,-7.93319 3.06554,-22.12682 6.85308,-31.91438 11.11327,-28.718342 38.48526,-50.919072 69.56744,-56.424402 8.71523,-1.54365 25.53612,-1.28063 34.3585,0.53725 32.06283,6.60667 59.1535,30.89166 69.1731,62.009102 2.74011,8.50987 5.70828,28.50384 4.51751,30.43055 -0.28347,0.45866 -0.0362,1.13008 0.54948,1.49205 0.65772,0.40649 0.71606,1.10202 0.1526,1.8191 -0.87462,1.11307 -2.68425,13.53285 -1.83731,12.60973 0.37731,-0.41123 35.0899,-83.816842 54.70768,-131.448762 4.53048,-11 8.39644,-20.1875002 8.59101,-20.4166702 2.63371,-3.10196 -2.58259,10.3581202 -24.23756,62.5423702 -37.35521,90.018772 -38.54648,92.926242 -37.63476,91.853262 0.45751,-0.53843 2.78798,-3.58294 5.17883,-6.76559 18.63745,-24.80977 53.54512,-39.2337 84.12798,-34.76189 26.73938,3.90981 49.37451,17.60293 63.94931,38.68603 11.5314,16.68081 16.3431,32.25706 16.3298,52.86248 -0.016,24.28636 -8.0353,45.02006 -24.2578,62.71563 -3.7283,4.06683 -5.0018,6.14097 -4.4147,7.19007 0.8864,1.584 -3.6157,3.36732 95.8127,-37.95178 39.1219,-16.25774 46.4197,-19.04031 44.2523,-16.87287 -0.3196,0.31958 -33.5821,14.26678 -73.9167,30.99377 -40.3346,16.727 -74.2356,30.80898 -75.33563,31.2933 -1.21499,0.53494 3.10253,0.68627 11.00003,0.38555 15.2247,-0.57972 26.6753,1.16952 38.5,5.88146 20.4962,8.16737 39.1498,25.13798 48.7646,44.36487 6.9681,13.9343 10.9905,33.78037 9.7287,48 -1.3697,15.43654 -7.591,33.51435 -15.479,44.97915 -8.7459,12.71181 -22.6435,24.68699 -36.5146,31.46375 -14.1603,6.91802 -21.3609,8.41779 -40.7737,8.49253 -16.72714,0.0644 -16.76281,0.0693 -12.7645,1.76741 2.2052,0.93656 4.8035,1.83656 5.774,2 0.9704,0.16344 1.9895,0.57619 2.2645,0.91722 0.275,0.34102 11.075,4.9988 24,10.35061 12.925,5.35182 40.825,16.92487 62,25.7179 21.175,8.79303 41.7625,17.33974 45.75,18.9927 3.9875,1.65296 7.25,3.40224 7.25,3.88731 0,1.08248 7.9234,4.27624 -71,-28.61857 -36.575,-15.24424 -67.2875,-27.7532 -68.25,-27.79769 -0.9625,-0.0445 -1.75,-0.39043 -1.75,-0.76877 0,-0.37834 -1.2375,-1.13588 -2.75,-1.68343 -1.5125,-0.54755 -3.65,-1.35097 -4.75,-1.78537 -1.10003,-0.4344 0.7406,1.50114 4.0902,4.30121 26.355,22.03105 38.4906,57.95566 30.8364,91.28405 -7.8554,34.20457 -34.0248,60.77982 -68.12528,69.18163 -11.67881,2.87747 -30.3589,3.07898 -41.69253,0.44976 -23.18404,-5.37834 -43.10221,-18.92682 -56.83076,-38.65672 -1.69526,-2.43633 -1.70059,-2.42044 -0.34432,1.02533 0.75769,1.925 15.16619,36.74138 32.01888,77.36973 25.74558,62.06728 31.99274,78.00913 29.21282,74.54694 -0.18398,-0.22917 -6.85911,-16.16667 -14.83359,-35.41667 C 481.6176,626.53694 470.90419,600.8795 470.6932,601.09048 c -0.1255,0.12551 0.0373,2.80065 0.36181,5.94476 0.51076,4.94871 0.87344,5.72084 2.7001,5.74837 1.90854,0.0288 1.95178,0.15224 0.45268,1.29255 -1.23015,0.93573 -1.94905,4.17796 -2.78874,12.57718 -2.19329,21.93912 -10.22867,39.82646 -24.76797,55.13532 -17.61521,18.54758 -37.13451,27.57183 -62.04683,28.68577 -24.09254,1.07728 -42.95769,-4.73964 -61.73904,-19.03676 -24.95727,-18.99848 -39.35419,-54.21908 -34.60124,-84.64843 1.03768,-6.64345 0.83585,-8.92735 -0.43505,-4.92309 -0.3954,1.24578 -8.02557,19.84219 -16.95595,41.32536 -8.93037,21.48316 -22.66106,54.5853 -30.51263,73.5603 -13.47037,32.55405 -15.99512,38.10881 -15.99512,35.19131 z m 174.99999,-44.77007 c 33.36281,-7.63433 59.19502,-32.6306 68.12583,-65.92124 3.15952,-11.77744 3.17497,-32.74572 0.0328,-44.43317 -8.5418,-31.7712 -32.20596,-56.16092 -63.15859,-65.09507 -9.3834,-2.70842 -30.95887,-3.8073 -40.24851,-2.04993 -37.28038,7.0525 -65.61669,34.66174 -73.16326,71.28601 -1.92103,9.32297 -2.03038,13.78674 -0.33823,13.80747 0.88893,0.0109 0.84483,0.27184 -0.15269,0.90339 -2.15458,1.3641 -0.8135,17.60551 2.34321,28.37789 4.42259,15.09226 10.49019,25.5534 21.49813,37.06491 22.22782,23.24464 54.35304,33.08666 85.06135,26.05974 z m -32.5,-75.47609 c -1.746,-0.7024 -1.65075,-0.81351 0.75,-0.87486 2.713,-0.0693 3.46421,0.3985 2,1.24556 -0.4125,0.23864 -1.65,0.0718 -2.75,-0.3707 z m 12.5,0.0548 c 0,-0.55 0.9,-1 2,-1 1.1,0 2,0.45 2,1 0,0.55 -0.9,1 -2,1 -1.1,0 -2,-0.45 -2,-1 z m -26,-1 c -1.20677,-0.77988 -1.04862,-0.97237 0.80902,-0.98469 1.28757,-0.009 2.03561,0.42706 1.69098,0.98469 -0.74319,1.2025 -0.63926,1.2025 -2.5,0 z m 39.75,0.33772 c 0.6875,-0.27741 1.8125,-0.27741 2.5,0 0.6875,0.27741 0.125,0.50439 -1.25,0.50439 -1.375,0 -1.9375,-0.22698 -1.25,-0.50439 z m 13.59638,-1.47175 c 1.32326,-0.76916 2.15905,-0.76054 2.95,0.0304 0.80483,0.80483 0.30495,1.09539 -1.84638,1.07321 -2.58611,-0.0267 -2.72225,-0.16279 -1.10362,-1.10362 z m -67.84638,-0.86597 c -0.33992,-0.55 0.28197,-1 1.38197,-1 1.1,0 2.27811,0.45 2.61803,1 0.33992,0.55 -0.28197,1 -1.38197,1 -1.1,0 -2.27811,-0.45 -2.61803,-1 z m 80.5,0.023 c 0,-0.43436 0.9,-1.0251 2,-1.31276 1.1,-0.28766 2,-0.16762 2,0.26674 0,0.43436 -0.9,1.0251 -2,1.31276 -1.1,0.28766 -2,0.16762 -2,-0.26674 z m -92.5,-2.023 c -1.90836,-0.82005 -1.8969,-0.86265 0.25,-0.92971 1.2375,-0.0387 2.25,0.37971 2.25,0.92971 0,0.55 -0.1125,0.96837 -0.25,0.92971 -0.1375,-0.0386 -1.15,-0.45702 -2.25,-0.92971 z m 105.5,-1 c 0,-0.55 0.92656,-1 2.05902,-1 1.13246,0 1.7809,0.45 1.44098,1 -0.33992,0.55 -1.26648,1 -2.05902,1 -0.79254,0 -1.44098,-0.45 -1.44098,-1 z m -118.25,-1.75739 c -0.9625,-0.21409 -1.75,-0.80626 -1.75,-1.31593 0,-1.17143 1.08434,-1.15893 2.97104,0.0343 1.79636,1.13605 1.15428,1.81001 -1.22104,1.28167 z m 131.25,-1.24261 c 0,-0.55 1.0125,-0.99311 2.25,-0.98469 1.81944,0.0124 1.96296,0.20082 0.75,0.98469 -1.93876,1.25292 -3,1.25292 -3,0 z m -144.75,-2.66228 c -2.0472,-0.82607 -1.41676,-2.19409 0.75,-1.62747 1.1,0.28766 2,0.92053 2,1.40638 0,0.95338 -0.77982,1.01607 -2.75,0.22109 z m 157.75,-1.1141 c 0,-0.5447 0.9,-1.22571 2,-1.51337 1.1,-0.28766 2,-0.11514 2,0.38337 0,0.49851 -0.1882,0.90638 -0.41821,0.90638 -0.23002,0 -1.13002,0.27314 -2,0.60699 -0.86999,0.33384 -1.58179,0.16133 -1.58179,-0.38337 z m -227.49999,18.85195 c 4.4,-1.13068 12.14961,-4.09842 17.22136,-6.59498 11.81543,-5.81613 28.88199,-19.21057 26.94509,-21.14746 -0.36003,-0.36004 0.35523,-1.14502 1.58947,-1.74442 3.27011,-1.58809 12.27855,-15.75854 15.76446,-24.79781 4.34355,-11.26319 5.97961,-20.37182 5.97961,-33.2909 0,-24.04607 -7.82373,-44.36646 -23.63443,-61.38516 -16.82308,-18.10842 -37.52199,-27.67339 -62.36556,-28.81913 -49.42459,-2.27938 -89.85623,33.75016 -94.4924,84.20429 -0.35377,3.85 -0.1466,10.96525 0.46038,15.81167 5.09448,40.67683 34.08705,71.58104 74.37359,79.27745 9.73292,1.8594 27.82532,1.14176 38.15843,-1.51355 z m 31.99999,-34.07557 c -0.33992,-0.55 0.057,-1 0.88197,-1 0.825,0 1.77811,0.45 2.11803,1 0.33992,0.55 -0.057,1 -0.88197,1 -0.825,0 -1.77811,-0.45 -2.11803,-1 z m -11.47104,-5.96094 c -0.80907,-0.51167 -1.21098,-1.19037 -0.89313,-1.50823 0.78775,-0.78775 3.86417,0.46709 3.86417,1.57616 0,1.13978 -1.10118,1.11461 -2.97104,-0.0679 z m -11.57008,-7.10559 c -1.17263,-1.89735 0.53762,-2.36554 2.27922,-0.62395 1.55894,1.55895 1.56168,1.69048 0.0352,1.69048 -0.9104,0 -1.95188,-0.47994 -2.31442,-1.06653 z m -10.7922,-7.60014 c -1.21466,-1.21466 -0.69095,-2.27988 0.83333,-1.69496 0.825,0.31659 1.5,0.97746 1.5,1.46862 0,1.0484 -1.37764,1.18204 -2.33333,0.22634 z m -10.63771,-8.29427 c -0.80907,-0.51167 -1.13586,-1.2655 -0.72619,-1.67516 0.40967,-0.40967 1.50556,0.0159 2.43533,0.94562 1.80738,1.80739 0.72543,2.26921 -1.70914,0.72954 z m -10.57008,-9.10559 c -1.17263,-1.89735 0.53762,-2.36554 2.27922,-0.62395 1.55894,1.55895 1.56168,1.69048 0.0352,1.69048 -0.9104,0 -1.95188,-0.47994 -2.31442,-1.06653 z m -9.45888,-9.43347 c -0.69443,-0.83674 -0.80272,-1.5 -0.24489,-1.5 0.55,0 1.5602,0.675 2.24489,1.5 0.69443,0.83674 0.80272,1.5 0.24489,1.5 -0.55,0 -1.5602,-0.675 -2.24489,-1.5 z m -9,-10 c -0.69443,-0.83674 -0.80272,-1.5 -0.24489,-1.5 0.55,0 1.5602,0.675 2.24489,1.5 0.69443,0.83674 0.80272,1.5 0.24489,1.5 -0.55,0 -1.5602,-0.675 -2.24489,-1.5 z m -8.33333,-9.16667 c -0.36667,-0.36666 -0.66667,-1.32176 -0.66667,-2.12244 0,-1.18064 0.28349,-1.2205 1.5,-0.21089 0.825,0.68469 1.5,1.63979 1.5,2.12244 0,1.03552 -1.38365,1.16058 -2.33333,0.21089 z m -8.20779,-11.39986 c -1.07627,-1.74144 0.14952,-2.11024 1.52106,-0.45764 0.78875,0.95039 0.86462,1.52417 0.20152,1.52417 -0.58488,0 -1.36004,-0.47994 -1.72258,-1.06653 z m -7.85189,-11.51526 c -0.93873,-2.44628 -0.7352,-2.7695 0.89301,-1.41821 1.66238,1.37965 1.99022,3 0.60699,3 -0.49116,0 -1.16616,-0.7118 -1.5,-1.58179 z M 158.411,502.83741 c -0.6143,-1.14784 -0.69884,-2.08565 -0.18801,-2.08565 1.02776,0 2.44663,3.02888 1.74673,3.72877 -0.24339,0.24339 -0.94481,-0.49602 -1.55872,-1.64312 z m -6.46239,-11.72878 c -0.83718,-2.18165 0.27438,-3.1957 1.45561,-1.32791 1.18254,1.86986 1.20771,2.97104 0.0679,2.97104 -0.49116,0 -1.17675,-0.73941 -1.52354,-1.64313 z m 422.8672,144.17939 c 24.83769,-7.33642 44.80888,-24.01993 56.02248,-46.79991 5.9992,-12.1871 8.5859,-22.49699 9.2169,-36.73635 2.1697,-48.96033 -35.4693,-90.55521 -84.76615,-93.67492 -17.33847,-1.09725 -35.07139,3.02842 -50.61175,11.77511 -10.72069,6.03401 -27.14659,22.4348 -33.1442,33.09355 -10.70867,19.03106 -14.35455,40.00533 -10.64833,61.25839 2.5669,14.71965 9.71636,30.4992 18.37239,40.5496 3.32147,3.85651 3.91758,4.17055 5.90134,3.10887 1.49308,-0.79907 2.20666,-0.8358 2.20666,-0.11356 0,0.58707 -0.93913,1.41481 -2.08695,1.83942 -1.90629,0.70518 -1.62494,1.16481 3.25,5.30931 12.08296,10.2725 22.20818,16.08698 34.53194,19.8302 11.14275,3.38451 15.85859,3.94828 29.80501,3.56311 10.39197,-0.287 14.79566,-0.88942 21.95066,-3.00282 z m -78.02366,-33.05773 c 2.05508,-1.55476 3.20345,-1.30764 2.11412,0.45494 -0.36254,0.58659 -1.4201,1.05222 -2.35014,1.03473 -1.48465,-0.0279 -1.45585,-0.2097 0.23602,-1.48967 z m 10.573,-5.47473 c 0,-1.21231 2.80451,-2.53262 3.62877,-1.70836 0.29839,0.29839 -0.39602,1.04481 -1.54312,1.65872 -1.44619,0.77398 -2.08565,0.7892 -2.08565,0.0496 z m 13.02006,-8.52797 c 0.69572,-0.83829 1.47088,-1.31823 1.72258,-1.06653 0.69349,0.6935 -0.71555,2.5907 -1.9241,2.5907 -0.6631,0 -0.58723,-0.57378 0.20152,-1.52417 z m 9.97994,-6.23094 c 0,-0.55 0.675,-1.5602 1.5,-2.24489 0.83674,-0.69443 1.5,-0.80272 1.5,-0.24489 0,0.55 -0.675,1.5602 -1.5,2.24489 -0.83674,0.69443 -1.5,0.80272 -1.5,0.24489 z m 11,-9.74489 c 0.68469,-0.825 1.69489,-1.5 2.24489,-1.5 0.55783,0 0.44954,0.66326 -0.24489,1.5 -0.68469,0.825 -1.69489,1.5 -2.24489,1.5 -0.55783,0 -0.44954,-0.66326 0.24489,-1.5 z m 10.2619,-9.19048 c 0.92977,-0.92976 2.02566,-1.35529 2.43533,-0.94562 0.40967,0.40966 0.0829,1.16349 -0.72619,1.67516 -2.43457,1.53967 -3.51652,1.07785 -1.70914,-0.72954 z m 8.7381,-8.10374 c 0,-0.52849 0.7269,-1.56417 1.61534,-2.3015 1.39754,-1.15986 1.56608,-1.08641 1.25,0.54469 -0.37664,1.94362 -2.86534,3.4695 -2.86534,1.75681 z m 9.1875,-10.26828 c 0.24063,-0.72187 1.02813,-1.50937 1.75,-1.75 0.75,-0.25 1.125,0.125 0.875,0.875 -0.24063,0.72187 -1.02813,1.50937 -1.75,1.75 -0.75,0.25 -1.125,-0.125 -0.875,-0.875 z m 8.82781,-9.47321 c 0.0273,-1.72154 1.85547,-3.92685 2.62079,-3.16152 0.40967,0.40967 -0.0159,1.50556 -0.94562,2.43533 -0.92977,0.92976 -1.68359,1.25654 -1.67517,0.72619 z m 8,-11 c 0.0273,-1.72154 1.85547,-3.92685 2.62079,-3.16152 0.40967,0.40967 -0.0159,1.50556 -0.94562,2.43533 -0.92977,0.92976 -1.68359,1.25654 -1.67517,0.72619 z m 7,-11 c 0.0273,-1.72154 1.85547,-3.92685 2.62079,-3.16152 0.40967,0.40967 -0.0159,1.50556 -0.94562,2.43533 -0.92977,0.92976 -1.68359,1.25654 -1.67517,0.72619 z m 7,-12.21429 c 0.028,-1.36867 1.86631,-3.70172 2.45386,-3.11417 0.78775,0.78775 -0.46709,3.86417 -1.57616,3.86417 -0.49115,0 -0.88612,-0.3375 -0.8777,-0.75 z m 6.00003,-12 c 0.028,-1.36867 1.8663,-3.70172 2.4538,-3.11417 0.7878,0.78775 -0.4671,3.86417 -1.5761,3.86417 -0.4912,0 -0.8861,-0.3375 -0.8777,-0.75 z m -271.01534,-5.8933 c 0,-0.23703 -1.9125,1.42449 -4.25,3.69226 -11.39095,11.05111 -29.00038,14.6485 -43.92954,8.97424 -2.92625,-1.1122 -5.40253,-2.02242 -5.50284,-2.0227 -0.1003,-2.7e-4 1.42473,2.362 3.38896,5.2495 4.95303,7.28116 9.92271,18.43011 12.52278,28.09353 1.73395,6.44441 2.20258,10.99016 2.23262,21.65647 0.0209,7.425 -0.31457,15.75 -0.74552,18.5 -0.52963,3.37977 5.22218,-9.37343 17.75,-39.35618 10.19345,-24.39589 18.53354,-44.5501 18.53354,-44.78712 z m 104.65945,43.34103 -17.30896,-41.6672 -1.0919,7.05423 c -2.19497,14.18072 -11.00499,26.26998 -23.61613,32.40644 -5.42368,2.63911 -6.50761,3.47946 -4.50433,3.49212 8.46814,0.0535 29.02139,8.46248 40.3871,16.52357 6.52068,4.62477 18.1188,16.38906 21.05058,21.35216 1.00048,1.69368 1.9481,2.95037 2.10583,2.79264 0.15773,-0.15772 -7.50226,-19.03701 -17.02219,-41.95396 z m -129.95682,31.9641 C 322.7374,543.5474 343.0767,531.6812 361.22187,528.56965 l 7.00478,-1.20119 -6.68075,-3.24332 c -13.74902,-6.67476 -22.0709,-18.43222 -23.95239,-33.84083 l -0.72867,-5.96751 -16.85844,40.46751 c -18.46993,44.33573 -18.55618,44.55757 -15.94747,41.01401 0.99342,-1.34941 3.6974,-4.67254 6.00885,-7.38473 z m 148.20201,0.26125 c -2.5108,-19.53433 2.86717,-43.03422 13.5817,-59.34739 2.48251,-3.7797 4.51366,-6.95112 4.51366,-7.04761 0,-0.0965 -3.2625,0.9229 -7.25,2.26532 -14.95996,5.03638 -31.71213,1.00175 -43.0607,-10.37083 l -2.81071,-2.81665 1.81071,4.53116 c 5.98746,14.98321 33.85224,81.61254 34.05434,81.42959 0.134,-0.12131 -0.24355,-4.01093 -0.839,-8.64359 z m -62.31897,-35.33362 c 11.47035,-5.2513 18.76494,-13.5095 22.43826,-25.40232 3.38732,-10.96686 2.41368,-19.31989 -3.69349,-31.68709 -6.69812,-13.5639 -20.93534,-21.19143 -37.89361,-20.30135 -15.78297,0.82839 -27.91596,9.74453 -34.35685,25.24772 -3.08726,7.43102 -3.27372,8.53354 -2.87516,17 0.50362,10.69819 3.28079,17.54072 10.27787,25.32316 4.59998,5.11628 13.54099,10.52566 20.13505,12.18185 6.94115,1.74337 19.4948,0.60152 25.96793,-2.36197 z m -24.88205,-34.69303 c 0.79095,-0.79095 1.62674,-0.79957 2.95,-0.0304 1.61863,0.94083 1.48249,1.07696 -1.10362,1.10362 -2.15133,0.0222 -2.65121,-0.26838 -1.84638,-1.07321 z m 13.79638,0.10362 c 0.33992,-0.55 1.26648,-1 2.05902,-1 0.79254,0 1.44098,0.45 1.44098,1 0,0.55 -0.92656,1 -2.05902,1 -1.13246,0 -1.7809,-0.45 -1.44098,-1 z m -26.5,-1 c -1.21296,-0.78387 -1.06944,-0.9723 0.75,-0.98469 1.2375,-0.008 2.25,0.43469 2.25,0.98469 0,1.25292 -1.06124,1.25292 -3,0 z m 39.5,0 c -0.35667,-0.5771 0.5699,-0.99352 2.19098,-0.98469 2.18111,0.0119 2.47372,0.232 1.30902,0.98469 -1.92129,1.24163 -2.73263,1.24163 -3.5,0 z m -51.75,-2.75739 c -0.9625,-0.21409 -1.75,-0.80626 -1.75,-1.31593 0,-1.17143 1.08434,-1.15893 2.97104,0.0343 1.79636,1.13605 1.15428,1.81001 -1.22104,1.28167 z m 65.25,-0.10044 c 0,-1.02776 3.02888,-2.44663 3.72877,-1.74673 0.24339,0.24339 -0.49602,0.94481 -1.64312,1.55872 -1.14784,0.6143 -2.08565,0.69884 -2.08565,0.18801 z m -96.80138,9.79092 c 3.37454,-1.1368 7.97285,-3.34187 10.21846,-4.90015 5.70618,-3.95965 9.9992,-8.65763 8.66492,-9.48226 -1.722,-1.06425 -1.25326,-2.40741 0.668,-1.91414 3.55137,0.91181 8.25,-11.44004 8.25,-21.68776 0,-23.93397 -19.23588,-42.21353 -42.83596,-40.70635 -8.27766,0.52865 -20.16404,4.86542 -20.16404,7.3569 0,0.73584 -0.59988,1.1077 -1.33307,0.82635 -2.07502,-0.79625 -9.49239,7.98583 -13.00241,15.39471 -2.901,6.12337 -3.16342,7.51236 -3.15125,16.67961 0.0117,8.8196 0.34193,10.70824 2.79758,16 3.17796,6.84827 12.16054,16.59817 18.18915,19.74294 10.01148,5.22239 21.33031,6.18298 31.69862,2.69015 z m 6.83034,-20.89403 c -0.80907,-0.51167 -1.13586,-1.2655 -0.72619,-1.67516 0.40967,-0.40967 1.50556,0.0159 2.43533,0.94562 1.80738,1.80739 0.72543,2.26921 -1.70914,0.72954 z m -11.57008,-8.10559 c -1.17263,-1.89735 0.53762,-2.36554 2.27922,-0.62395 1.55894,1.55895 1.56168,1.69048 0.0352,1.69048 -0.9104,0 -1.95188,-0.47994 -2.31442,-1.06653 z m -10,-9 c -0.36253,-0.58659 -0.41903,-1.30665 -0.12555,-1.60014 0.71632,-0.71631 2.66667,0.54583 2.66667,1.72569 0,1.27797 -1.72641,1.19267 -2.54112,-0.12555 z m -8.43882,-10.4093 c -0.78875,-0.95039 -0.86462,-1.52417 -0.20152,-1.52417 1.20855,0 2.61759,1.8972 1.9241,2.5907 -0.2517,0.2517 -1.02686,-0.22824 -1.72258,-1.06653 z m -7.67498,-11.0673 c -0.93028,-2.42426 0.36778,-2.86191 1.60908,-0.54252 0.77398,1.44619 0.7892,2.08565 0.0496,2.08565 -0.58661,0 -1.33304,-0.69441 -1.65872,-1.54313 z m 189.82324,55.78103 c 7.9942,-3.93553 15.93042,-12.03501 19.58242,-19.98526 3.51467,-7.65128 4.30381,-20.50441 1.74319,-28.39223 -3.15918,-9.73168 -10.31975,-19.36786 -13.61493,-18.32201 -1.39359,0.44231 -1.7165,0.2017 -1.27464,-0.94976 0.38751,-1.00983 -0.21873,-1.87801 -1.75629,-2.51516 -1.29144,-0.53515 -5.5735,-2.34561 -9.51568,-4.02324 -8.54716,-3.63731 -15.24238,-3.9565 -24.24143,-1.15568 -13.1705,4.09912 -23.10379,13.9319 -27.08027,26.80627 -2.67141,8.64899 -2.53826,16.1847 0.43483,24.60936 3.17608,8.99988 5.20088,12.01554 7.6394,11.37785 2.09474,-0.54778 2.68713,0.86973 0.66508,1.59145 -1.55705,0.55575 1.96183,4.5558 7.20301,8.18795 7.08549,4.91025 13.59258,6.60248 24.12585,6.27417 8.42102,-0.26247 10.36583,-0.68598 16.08946,-3.50371 z m -38.16832,-17.09573 c 0,-1.02776 3.02888,-2.44663 3.72877,-1.74673 0.24339,0.24339 -0.49602,0.94481 -1.64312,1.55872 -1.14784,0.6143 -2.08565,0.69884 -2.08565,0.18801 z m 12,-8.64217 c 0.68469,-0.825 1.69489,-1.5 2.24489,-1.5 0.55783,0 0.44954,0.66326 -0.24489,1.5 -0.68469,0.825 -1.69489,1.5 -2.24489,1.5 -0.55783,0 -0.44954,-0.66326 0.24489,-1.5 z m 10,-9 c 0.68469,-0.825 1.69489,-1.5 2.24489,-1.5 0.55783,0 0.44954,0.66326 -0.24489,1.5 -0.68469,0.825 -1.69489,1.5 -2.24489,1.5 -0.55783,0 -0.44954,-0.66326 0.24489,-1.5 z m 9.02006,-10.02417 c 0.69572,-0.83829 1.47088,-1.31823 1.72258,-1.06653 0.69349,0.6935 -0.71555,2.5907 -1.9241,2.5907 -0.6631,0 -0.58723,-0.57378 0.20152,-1.52417 z m 6.97994,-10.35339 c 0,-0.48265 0.675,-1.43775 1.5,-2.12244 1.62821,-1.35129 1.83174,-1.02807 0.89301,1.41821 -0.64255,1.67447 -2.39301,2.18961 -2.39301,0.70423 z m -313.48102,35.11461 c -0.19677,-0.24459 -11.68788,4.6279 -12.29251,5.2123 -0.15044,0.14542 -0.002,0.97283 0.33058,1.8387 0.49405,1.28746 1.6581,0.81249 6.38879,-2.60687 3.18157,-2.29965 5.68949,-4.29951 5.57314,-4.44413 z m 102.40608,-0.19216 c -5.64493,-14.85625 -2.27418,-31.34284 8.83677,-43.22135 l 4.57625,-4.89239 -7.91904,3.37369 c -4.35547,1.85553 -24.65568,10.29688 -45.11155,18.75857 -20.45589,8.46168 -37.10589,15.45409 -37,15.53869 0.10588,0.0846 3.79252,-0.50053 8.19252,-1.30027 10.12116,-1.83962 26.02313,-1.12062 37,1.67294 8.21607,2.09095 23.28683,8.8969 29.49999,13.32217 1.925,1.37107 3.60182,2.40083 3.72627,2.28835 0.12445,-0.11247 -0.6861,-2.60566 -1.80121,-5.5404 z m 235.41006,1.51307 c 4.73388,-3.6107 18.21554,-10.0843 25.85445,-12.41474 9.73048,-2.96853 25.69018,-4.50406 34.81043,-3.34922 4.125,0.52232 7.60435,0.8655 7.73189,0.76262 0.19828,-0.15995 -75.5164,-31.79809 -79.73189,-33.31678 -0.825,-0.29722 -0.0633,0.98973 1.69262,2.85988 5.50549,5.8636 9.46061,15.78947 10.03762,25.19073 0.42517,6.92713 0.12261,9.34208 -1.93689,15.45955 -1.34242,3.9875 -2.26507,7.25 -2.05033,7.25 0.21473,0 1.83118,-1.09892 3.5921,-2.44204 z m -340.90269,-4.67806 c 28.68296,-4.99965 55.19012,-26.75759 66.5221,-54.6035 9.03252,-22.19549 8.51158,-50.41246 -1.32371,-71.69965 -12.08727,-26.16132 -35.99642,-45.28343 -64.11429,-51.27746 -10.5463,-2.24822 -28.13288,-1.97763 -38.89351,0.59842 -17.63326,4.22131 -32.852058,13.1701 -45.701578,26.87296 -15.74283,16.78831 -23.92143,37.51089 -23.92143,60.61104 0,26.31066 9.11151,47.96311 27.63849,65.67964 8.0473,7.69527 13.20806,11.34125 23.070018,16.29853 16.59408,8.34129 36.71158,11.00831 56.72391,7.52002 z m -15.41711,-2.1299 c 0.0124,-1.81944 0.20082,-1.96296 0.98469,-0.75 1.25292,1.93876 1.25292,3 0,3 -0.55,0 -0.99311,-1.0125 -0.98469,-2.25 z m -4.40832,-12.33179 c -0.80555,-2.09921 -0.76909,-2.41821 0.27638,-2.41821 0.48585,0 1.11872,0.9 1.40638,2 0.61756,2.36157 -0.80167,2.71429 -1.68276,0.41821 z m -3.60699,-13.47723 c 0,-1.13246 0.45,-1.7809 1,-1.44098 0.55,0.33992 1,1.26648 1,2.05902 0,0.79254 -0.45,1.44098 -1,1.44098 -0.55,0 -1,-0.92656 -1,-2.05902 z m -3,-13 c 0,-1.13246 0.45,-1.7809 1,-1.44098 0.55,0.33992 1,1.26648 1,2.05902 0,0.79254 -0.45,1.44098 -1,1.44098 -0.55,0 -1,-0.92656 -1,-2.05902 z m -2,-13 c 0,-1.13246 0.45,-1.7809 1,-1.44098 0.55,0.33992 1,1.26648 1,2.05902 0,0.79254 -0.45,1.44098 -1,1.44098 -0.55,0 -1,-0.92656 -1,-2.05902 z m -1.42579,-12.6082 c -0.35188,-0.91697 -0.17502,-2.13197 0.39301,-2.7 0.71037,-0.71037 1.03278,-0.18992 1.03278,1.66722 0,3.08485 -0.4995,3.44667 -1.42579,1.03278 z m -0.41632,-14.33278 c 0,-1.37501 0.22698,-1.93751 0.50439,-1.25001 0.27741,0.68751 0.27741,1.81251 0,2.50001 -0.27741,0.6875 -0.50439,0.125 -0.50439,-1.25 z m 0.0371,-13.50001 c -0.0204,-1.65 0.18706,-2.44606 0.46099,-1.76903 0.27392,0.67703 0.29059,2.02703 0.0371,3 -0.25354,0.97297 -0.47766,0.41903 -0.49804,-1.23097 z m -0.19499,-13.5 c 0,-1.1 0.45,-2 1,-2 0.55,0 1,0.9 1,2 0,1.1 -0.45,2 -1,2 -0.55,0 -1,-0.9 -1,-2 z m 2.19495,-13.5 c -0.0204,-1.65 0.18706,-2.44606 0.46099,-1.76903 0.27392,0.67703 0.29059,2.02703 0.0371,3 -0.25354,0.97297 -0.47766,0.41903 -0.49804,-1.23097 z m 1.51236,-13.48875 c 0.28604,-1.09382 0.89926,-1.75441 1.36271,-1.46798 0.98427,0.60832 0.0915,3.45673 -1.08339,3.45673 -0.43966,0 -0.56536,-0.89494 -0.27932,-1.98875 z m 2.308,-11.76125 c 0.008,-0.4125 0.45153,-1.425 0.98469,-2.25 0.78387,-1.21296 0.9723,-1.06944 0.98469,0.75 0.008,1.2375 -0.43469,2.25 -0.98469,2.25 -0.55,0 -0.99311,-0.3375 -0.98469,-0.75 z m 3.98469,-14.19098 c 0,-1.13246 0.45,-2.05902 1,-2.05902 0.55,0 1,0.64844 1,1.44098 0,0.79254 -0.45,1.7191 -1,2.05902 -0.55,0.33992 -1,-0.30852 -1,-1.44098 z m 4,-12.44098 c 0,-0.825 0.45,-1.77811 1,-2.11803 0.55,-0.33992 1,0.057 1,0.88197 0,0.825 -0.45,1.77811 -1,2.11803 -0.55,0.33992 -1,-0.057 -1,-0.88197 z m 488.78403,174.29977 c 31.3438,-3.49503 57.3452,-21.52795 71.255,-49.4178 7.447,-14.93177 9.2803,-22.93217 9.2803,-40.50001 0,-17.2865 -1.8189,-25.46067 -8.8387,-39.72137 -13.9639,-28.36741 -40.0672,-46.66953 -71.5727,-50.18261 -28.50798,-3.17883 -56.28498,7.34188 -76.10809,28.82642 -28.16041,30.52062 -31.7825,76.55716 -8.73445,111.01437 5.99598,8.96409 16.08492,19.31847 24.3924,25.03417 11.36074,7.81639 27.37611,13.60143 41.54224,15.00578 4.125,0.40893 7.8552,0.80645 8.2894,0.88338 0.4342,0.0769 5.1567,-0.34712 10.4946,-0.94233 z m -11.784,-5.29977 c 0,-0.825 0.45,-1.77811 1,-2.11803 0.55,-0.33992 1,0.057 1,0.88197 0,0.825 -0.45,1.77811 -1,2.11803 -0.55,0.33992 -1,-0.057 -1,-0.88197 z m 4,-12.5 c 0,-1.1 0.45,-2.27811 1,-2.61803 0.55,-0.33992 1,0.28197 1,1.38197 0,1.1 -0.45,2.27811 -1,2.61803 -0.55,0.33992 -1,-0.28197 -1,-1.38197 z m 3.7073,-14.10678 c 0.286,-1.09382 0.8992,-1.75441 1.3627,-1.46798 0.9843,0.60832 0.091,3.45673 -1.0834,3.45673 -0.4397,0 -0.5654,-0.89494 -0.2793,-1.98875 z m 2.2927,-12.45223 c 0,-0.79254 0.45,-1.7191 1,-2.05902 0.55,-0.33992 1,0.30852 1,1.44098 0,1.13246 -0.45,2.05902 -1,2.05902 -0.55,0 -1,-0.64844 -1,-1.44098 z m 2,-13 c 0,-0.79254 0.45,-1.7191 1,-2.05902 0.55,-0.33992 1,0.30852 1,1.44098 0,1.13246 -0.45,2.05902 -1,2.05902 -0.55,0 -1,-0.64844 -1,-1.44098 z m 2.1949,-14.05902 c -0.02,-1.65 0.1871,-2.44606 0.461,-1.76903 0.2739,0.67703 0.2906,2.02703 0.037,3 -0.2535,0.97297 -0.4777,0.41903 -0.498,-1.23097 z m -0.1949,-13.50001 c 0,-1.1 0.45,-2 1,-2 0.55,0 1,0.9 1,2 0,1.1 -0.45,2 -1,2 -0.55,0 -1,-0.9 -1,-2 z m 0.3358,-11.56722 c -0.3308,-0.86197 -0.092,-2.07697 0.5314,-2.7 0.8437,-0.84371 1.1328,-0.44377 1.1328,1.56722 0,3.0087 -0.7488,3.51836 -1.6642,1.13278 z m -0.6389,-13.82591 c -0.4092,-1.04122 -0.5084,-2.12872 -0.2205,-2.41666 0.9121,-0.91206 1.7146,0.58256 1.3324,2.48152 -0.3502,1.74033 -0.4037,1.73721 -1.1119,-0.0649 z m -1.6969,-14.16589 c 0,-1.45136 0.4328,-2.2915 1,-1.94098 0.55,0.33992 1,1.49148 1,2.55902 0,1.06754 -0.45,1.94098 -1,1.94098 -0.55,0 -1,-1.15156 -1,-2.55902 z m -1.9847,-13.69098 c 0.012,-1.81944 0.2008,-1.96296 0.9847,-0.75 1.2529,1.93876 1.2529,3 0,3 -0.55,0 -0.9931,-1.0125 -0.9847,-2.25 z m -3.0153,-12.80902 c 0,-1.13246 0.45,-1.7809 1,-1.44098 0.55,0.33992 1,1.26648 1,2.05902 0,0.79254 -0.45,1.44098 -1,1.44098 -0.55,0 -1,-0.92656 -1,-2.05902 z m -3.4688,-12.23411 c -0.4281,-0.98622 -0.4977,-2.07372 -0.1548,-2.41666 1.0155,-1.0155 1.8341,0.41094 1.3667,2.38152 -0.4143,1.74695 -0.4682,1.74851 -1.2119,0.0351 z m -3.7812,-11.28382 c -0.4125,-0.416 -0.75,-1.67137 -0.75,-2.78971 0,-1.47178 0.302,-1.73126 1.0937,-0.93955 0.6016,0.60158 0.9391,1.85695 0.75,2.78971 -0.189,0.93276 -0.6812,1.35556 -1.0937,0.93955 z M 351.86687,443.75181 c 2.39718,-5.775 5.07531,-12.19782 5.9514,-14.27294 l 1.59289,-3.77293 -4.10555,2.97404 c -4.67497,3.38653 -11.47154,4.77955 -15.85834,3.2503 l -2.98093,-1.03916 2.88951,5.68618 c 3.38679,6.66477 4.93568,12.73041 5.024,19.67451 l 0.0636,5 1.53247,-3.5 c 0.84285,-1.925 3.49379,-8.225 5.89097,-14 z m 53.08493,-1.86859 c -5.84151,-14.08551 -6.38546,-15.01926 -6.96444,-11.95513 -0.93006,4.92218 -4.1664,9.62223 -8.30835,12.06605 l -3.66802,2.16418 4.53461,1.15679 c 5.88717,1.50183 13.94873,5.91832 17.42387,9.54559 1.51243,1.57864 2.87787,2.74225 3.03431,2.58581 0.15644,-0.15643 -2.56695,-7.15991 -6.05198,-15.56329 z m -38.57204,4.12152 5.70553,-1.68149 -4.45326,-4.03572 c -3.33812,-3.02514 -4.76114,-5.25034 -5.68277,-8.88623 l -1.22952,-4.85051 -4.84228,11.85051 c -2.66326,6.51778 -5.4512,13.31809 -6.19543,15.11179 l -1.35315,3.26128 6.17268,-4.54406 c 3.43836,-2.53118 8.70006,-5.28892 11.8782,-6.22557 z m 51.78537,-10.25293 2.79726,-5.5 -7.04862,0 c -5.87758,0 -7.619,-0.40679 -10.48179,-2.44852 -2.11898,-1.51125 -3.21977,-1.89404 -2.87569,-1 0.30662,0.79669 3.19567,7.82721 6.42012,15.62339 l 5.86264,14.17488 1.26441,-7.67488 c 0.69542,-4.22118 2.52317,-10.14987 4.06167,-13.17487 z m 150.65002,20.19998 c -0.5225,-0.44001 -2.975,-2.40346 -5.45,-4.36322 -17.10089,-13.54084 -29.26198,-32.7744 -33.72425,-53.33705 l -1.59234,-7.3377 -2.69439,5.669 c -6.25465,13.15975 -19.75475,22.8186 -33.42737,23.9161 -3.63921,0.29213 -6.37033,0.77755 -6.06915,1.07872 0.4709,0.4709 82.22475,34.83934 83.4575,35.08463 0.2475,0.0492 0.0225,-0.27047 -0.5,-0.71048 z m -334.44999,-17.83494 40.49999,-16.86504 -7.33579,-0.65496 c -13.62578,-1.21654 -27.09075,-10.61858 -32.95098,-23.00833 -1.49227,-3.15497 -2.9481,-5.75889 -3.23517,-5.78651 -0.28707,-0.0276 -1.0844,2.91482 -1.77185,6.53873 -3.78895,19.97353 -17.69294,41.49931 -35.7062,55.27937 -4.03544,3.08709 -5.36972,3.59784 40.5,-15.50326 z m 149.93132,4.65466 c 6.71778,-1.92664 12.06867,-9.02494 12.06867,-16.00988 0,-14.83833 -17.7424,-22.50272 -28.10449,-12.14062 -8.61204,8.61203 -6.65382,21.37314 4.12492,26.8808 4.88761,2.49745 6.88687,2.71057 11.9109,1.2697 z m -12.93133,-14.0197 c 0,-0.55 0.64844,-1 1.44098,-1 0.79254,0 1.7191,0.45 2.05902,1 0.33992,0.55 -0.30852,1 -1.44098,1 -1.13246,0 -2.05902,-0.45 -2.05902,-1 z m 13.5,0 c 0.33992,-0.55 1.26648,-1 2.05902,-1 0.79254,0 1.44098,0.45 1.44098,1 0,0.55 -0.92656,1 -2.05902,1 -1.13246,0 -1.7809,-0.45 -1.44098,-1 z m -34.11119,0.6109 c 10.85006,-4.53344 13.58867,-18.83342 5.21119,-27.2109 -13.31816,-13.31816 -35.19536,2.75171 -26.62264,19.55562 1.84479,3.61609 5.52082,7.00701 9.02264,8.32285 2.81917,1.05932 9.06071,0.723 12.38881,-0.66757 z m -2.88326,-10.60477 c -0.99854,-1.10337 -1.35088,-2.00613 -0.78298,-2.00613 1.25825,0 3.7524,2.85836 3.08047,3.5303 -0.26508,0.26508 -1.29895,-0.4208 -2.29749,-1.52417 z m -9.50555,-9.50613 c -0.70675,-0.85158 -1.06,-1.77333 -0.785,-2.04833 0.275,-0.275 1.07825,0.19675 1.785,1.04833 0.70675,0.85158 1.06,1.77333 0.785,2.04833 -0.275,0.275 -1.07825,-0.19675 -1.785,-1.04833 z m 79.30718,19.43149 c 14.24259,-3.62962 17.39302,-21.4307 5.36949,-30.33954 -2.16861,-1.60683 -4.29666,-2.09195 -9.17667,-2.09195 -7.10287,0 -10.29401,1.67727 -14.25,7.48983 -2.43362,3.57573 -3.04088,10.79979 -1.29407,15.39426 1.33353,3.50744 6.77327,8.46999 10.45651,9.53922 4.19592,1.21807 4.14733,1.21802 8.89474,0.008 z m -8.30718,-9.8245 c 0,-0.49116 0.7118,-1.16616 1.58179,-1.5 2.44628,-0.93873 2.7695,-0.7352 1.41821,0.89301 -1.37965,1.66238 -3,1.99022 -3,0.60699 z m 10.0318,-9.29797 c -0.0175,-0.93004 0.44814,-1.9876 1.03473,-2.35014 1.76258,-1.08933 2.0097,0.059 0.45494,2.11412 -1.27997,1.69187 -1.46174,1.72067 -1.48967,0.23602 z m -93.31435,8.62199 c -1.30227,-4.24316 0.18883,-11.08629 3.39758,-15.59256 l 2.04541,-2.8725 -4.83022,1.93637 c -2.65662,1.06501 -10.23022,4.2067 -16.83022,6.98154 -10.96152,4.60855 -11.65384,5.04958 -8,5.09627 5.86116,0.0749 14.29809,2.3122 20,5.30359 2.75,1.44274 5.07038,2.64411 5.1564,2.66972 0.086,0.0256 -0.33651,-1.55948 -0.93895,-3.52243 z m -37.9238,-2.61297 c 32.88226,-13.66903 33.01214,-59.95609 0.20635,-73.53756 -9.43376,-3.90554 -15.03741,-4.74144 -22.56225,-3.36564 -13.25342,2.42319 -24.7468,11.10925 -30.25768,22.86708 -2.4199,5.163 -2.68006,6.83441 -2.68006,17.21807 0,10.38367 0.26016,12.05508 2.68006,17.21808 3.64571,7.77837 10.78466,15.1475 18.21493,18.80226 11.89441,5.85056 21.69667,6.07787 34.39865,0.79771 z m -15.2102,-4.46117 c -0.83718,-2.18165 0.27438,-3.1957 1.45561,-1.32791 1.18254,1.86986 1.20771,2.97104 0.0679,2.97104 -0.49116,0 -1.17675,-0.73941 -1.52354,-1.64313 z m -3.00924,-13.02409 c -0.35188,-0.91697 -0.17502,-2.13197 0.39301,-2.7 0.71037,-0.71037 1.03278,-0.18992 1.03278,1.66722 0,3.08485 -0.4995,3.44667 -1.42579,1.03278 z m -1.57421,-14.33279 c 0,-1.1 0.45,-2 1,-2 0.55,0 1,0.9 1,2 0,1.1 -0.45,2 -1,2 -0.55,0 -1,-0.9 -1,-2 z m 0,-13 c 0,-1.1 0.45,-2 1,-2 0.55,0 1,0.9 1,2 0,1.1 -0.45,2 -1,2 -0.55,0 -1,-0.9 -1,-2 z m 2,-12.88197 c 0,-1.1 0.45,-2.27811 1,-2.61803 0.55,-0.33992 1,0.28197 1,1.38197 0,1.1 -0.45,2.27811 -1,2.61803 -0.55,0.33992 -1,-0.28197 -1,-1.38197 z m 3.39301,-13.69982 c 0.33385,-0.86998 0.60699,-1.79654 0.60699,-2.05901 0,-0.26248 0.43035,-0.21127 0.95633,0.11381 1.16096,0.71751 0.22873,3.52699 -1.17031,3.52699 -0.55,0 -0.72685,-0.7118 -0.39301,-1.58179 z m 175.93706,68.52613 6.94697,-1.17176 -14.30239,-5.88629 c -7.86631,-3.23745 -14.46711,-5.88628 -14.66845,-5.88628 -0.20134,0 0.6599,1.38932 1.91386,3.08737 1.84129,2.49338 2.2795,4.37961 2.27765,9.80397 l -0.002,6.7166 5.44383,-2.74593 c 2.99411,-1.51026 8.56998,-3.27322 12.39082,-3.91768 z m 44.23627,5.9624 c 13.32393,-2.45491 24.02738,-10.60428 29.72438,-22.63147 2.97843,-6.28791 3.20928,-7.53053 3.20928,-17.27527 0,-9.74473 -0.23085,-10.98735 -3.20928,-17.27526 -5.5564,-11.73038 -16.01637,-19.86038 -29.08994,-22.61015 -6.10968,-1.28505 -11.20078,-1.45077 -11.20078,-0.36459 0,0.4125 -1.2375,0.79981 -2.75,0.86069 -1.5125,0.0609 -6.24853,1.58764 -10.5245,3.39281 -6.18013,2.60903 -8.88002,4.4762 -13.16522,9.10473 -7.56975,8.17624 -9.982,14.67489 -9.982,26.89177 0,12.24345 2.40829,18.71127 10.03408,26.94803 4.22863,4.56743 6.9424,6.48015 12.16521,8.57433 15.58384,6.24862 15.11794,6.16622 24.78877,4.38438 z m -9.55103,-7.09771 c 0.008,-0.71996 0.45153,-1.98402 0.98469,-2.80902 0.78809,-1.21948 0.97224,-1.09025 0.98469,0.69098 0.008,1.20504 -0.43469,2.4691 -0.98469,2.80902 -0.55,0.33992 -0.99311,0.029 -0.98469,-0.69098 z m 3,-13.55902 c 0.008,-0.4125 0.45153,-1.425 0.98469,-2.25 0.78387,-1.21296 0.9723,-1.06944 0.98469,0.75 0.008,1.2375 -0.43469,2.25 -0.98469,2.25 -0.55,0 -0.99311,-0.3375 -0.98469,-0.75 z m 1.98469,-14.08334 c 0,-1.19167 0.41018,-2.16667 0.91152,-2.16667 1.01666,0 0.8649,2.55691 -0.21591,3.63772 -0.38259,0.38259 -0.69561,-0.27939 -0.69561,-1.47105 z m 0,-7.16667 c 0,-1.1 0.45,-2 1,-2 0.55,0 1,0.9 1,2 0,1.1 -0.45,2 -1,2 -0.55,0 -1,-0.9 -1,-2 z m -0.96959,-13.55 c 0.0267,-2.58611 0.16279,-2.72225 1.10362,-1.10362 0.76916,1.32326 0.76054,2.15905 -0.0304,2.95 -0.80483,0.80483 -1.09539,0.30495 -1.07321,-1.84638 z m -2.28041,-11.02696 c -0.4125,-0.416 -0.75,-1.67137 -0.75,-2.78971 0,-1.47178 0.30207,-1.73126 1.09378,-0.93955 0.60158,0.60158 0.93908,1.85695 0.75,2.78971 -0.18908,0.93276 -0.68128,1.35556 -1.09378,0.93955 z m -115.25104,45.76777 c 3.69379,-8.97006 6.53182,-16.49336 6.30675,-16.71843 -0.22507,-0.22507 -8.20419,2.83907 -17.73138,6.80921 -9.52719,3.97013 -16.7039,7.30095 -15.94824,7.40183 6.94253,0.92679 9.37731,1.81969 12.54425,4.60029 4.22798,3.71222 6.31739,8.12561 6.36007,13.43418 0.0389,4.8416 0.21038,4.52724 8.46855,-15.52708 z m 15.9034,0.11025 c -3.55682,-8.63443 -6.66482,-15.89685 -6.90667,-16.1387 -0.24185,-0.24186 -0.86355,0.63517 -1.38155,1.94895 -0.518,1.31378 -3.43216,8.3512 -6.47592,15.6387 -5.01289,12.00211 -5.8569,15.62827 -2.77254,11.91185 1.78526,-2.15112 8.97544,-3.86449 13.21295,-3.14857 2.13113,0.36006 5.34777,1.70333 7.14808,2.98505 1.80031,1.28171 3.35638,2.36893 3.45793,2.41603 0.10156,0.0471 -2.72547,-6.97889 -6.28228,-15.61331 z m 12.32369,3.08367 c 1.97319,-2.77108 5.37333,-4.93701 11.07433,-7.05449 1.9476,-0.72338 -0.0272,-1.81709 -12.87714,-7.13185 -8.34762,-3.45261 -15.3002,-6.14717 -15.45016,-5.98793 -0.14996,0.15925 2.68911,7.41408 6.30905,16.12185 l 6.58171,15.83229 1.11556,-4.39351 c 0.61355,-2.41642 2.07455,-5.74029 3.24665,-7.38636 z m -80.0417,1.87397 c 6.15139,-2.56417 10.99826,-4.96322 10.77081,-5.33124 -0.22745,-0.36802 -1.83286,-0.95299 -3.56757,-1.29993 -1.82609,-0.36522 -5.0175,-2.49427 -7.57998,-5.05676 -2.50039,-2.50038 -4.60279,-3.91362 -4.83241,-3.24835 -3.31168,9.59451 -5.2443,13.31671 -9.19671,17.71273 l -4.614,5.13188 3.91776,-1.62311 c 2.15476,-0.89271 8.95071,-3.72106 15.1021,-6.28522 z m 135.96675,3.49101 c -4.02456,-4.91145 -8.13157,-12.79654 -9.13098,-17.53067 l -0.69263,-3.28097 -2.79753,3.86189 c -2.66213,3.67496 -8.1771,7.20005 -11.26442,7.20005 -4.41866,0 -1.23887,2.01159 11.97197,7.57365 8.11937,3.41843 14.90512,6.26282 15.07944,6.32084 0.17432,0.058 -1.25031,-1.80712 -3.16585,-4.14479 z M 340.11256,393.38243 c 5.40647,-2.79579 7.75259,-7.22337 7.75259,-14.63063 0,-7.85309 -2.57645,-12.22227 -8.90107,-15.09457 -5.43289,-2.46732 -9.25217,-2.37705 -14.5785,0.34457 -6.25702,3.19718 -8.35027,6.52563 -8.81133,14.01077 -0.32482,5.27344 -0.0212,6.781 1.96137,9.73924 4.77661,7.12722 14.83289,9.63522 22.57694,5.63062 z m -10.99741,-7.20758 c -0.4125,-0.41601 -0.75,-1.67138 -0.75,-2.78972 0,-1.47178 0.30207,-1.73126 1.09378,-0.93955 0.60158,0.60158 0.93908,1.85695 0.75,2.78971 -0.18908,0.93277 -0.68128,1.35557 -1.09378,0.93956 z m -0.73469,-14.17305 c 0.008,-0.4125 0.45153,-1.425 0.98469,-2.25 0.78387,-1.21296 0.9723,-1.06944 0.98469,0.75 0.008,1.2375 -0.43469,2.25 -0.98469,2.25 -0.55,0 -0.99311,-0.3375 -0.98469,-0.75 z m 106.90023,21.79521 c 0.9956,-0.53283 3.19969,-2.55135 4.89799,-4.48561 5.49576,-6.25933 5.45616,-14.90497 -0.0972,-21.22994 -4.27423,-4.86808 -12.75339,-8.47465 -11.35467,-4.82966 0.75479,1.96695 -0.33163,1.92329 -1.79059,-0.072 -2.87047,-3.9256 -13.33243,3.65791 -15.6194,11.32196 -2.20068,7.37484 1.86931,15.96579 9.27101,19.56928 3.46371,1.68629 11.30315,1.54006 14.69289,-0.27407 z m -5.75765,-10.04521 c 0,-1.375 0.22698,-1.9375 0.50439,-1.25 0.27741,0.6875 0.27741,1.8125 0,2.5 -0.27741,0.6875 -0.50439,0.125 -0.50439,-1.25 z m -0.15789,-7.5 c 0,-1.49071 0.4306,-2.35191 1,-2 0.55,0.33992 1,1.23992 1,2 0,0.76008 -0.45,1.66008 -1,2 -0.5694,0.35191 -1,-0.50929 -1,-2 z m -67.25,8.90573 c 7.8375,-3.20065 14.2475,-6.0638 14.24445,-6.36255 -0.004,-0.41056 -20.4619,-9.20077 -29.64287,-12.73688 -0.63163,-0.24327 -0.0691,1.68955 1.25,4.29517 1.31913,2.60562 2.39842,6.38496 2.39842,8.39853 0,2.01357 -1.07929,5.79291 -2.39842,8.39854 -1.31913,2.60562 -1.88163,4.53254 -1.25,4.28204 0.63163,-0.2505 7.56092,-3.07418 15.39842,-6.27485 z m 49.30763,2.45706 c -1.41076,-2.31401 -2.05015,-5.07812 -2.05015,-8.86279 0,-3.78467 0.63939,-6.54878 2.05015,-8.86278 1.12758,-1.84953 1.91339,-3.49566 1.74626,-3.65807 -0.52166,-0.5069 -29.80389,11.75507 -29.80389,12.48041 0,0.74935 29.25816,13.11562 29.78488,12.5889 0.17759,-0.17759 -0.59967,-1.83614 -1.72725,-3.68567 z m -34.05763,-11.54305 c 0,-0.69133 -11.56778,-28.92176 -14.47271,-35.31974 l -1.58914,-3.5 0.592,3.16632 c 1.83386,9.80845 -6.53535,20.1423 -17.43511,21.52795 -1.6321,0.20748 3.0277,2.60191 14.5,7.45081 17.85833,7.54803 18.40496,7.74626 18.40496,6.67466 z m 21.27215,-6.09339 13.77215,-5.68286 -3.56519,-1.2343 c -1.96085,-0.67886 -4.8572,-2.15429 -6.43632,-3.27872 -3.19229,-2.27311 -7.04279,-9.38762 -7.04279,-13.01286 0,-1.29302 -0.22248,-2.12847 -0.49439,-1.85655 -0.27191,0.27191 -3.41892,7.59391 -6.99335,16.2711 -4.96514,12.05323 -6.08752,15.62335 -4.75561,15.12688 0.95884,-0.35741 7.94082,-3.20712 15.5155,-6.33269 z m -12.71525,-8.28042 c 3.08848,-7.39526 6.00469,-14.42997 6.48046,-15.63268 l 0.86504,-2.18674 -3.46454,2.3511 c -1.9055,1.29311 -5.21268,2.64645 -7.34928,3.00742 -4.24756,0.71763 -11.43532,-0.99297 -13.2229,-3.14688 -3.08436,-3.71642 -2.24035,-0.0903 2.77254,11.91185 3.04376,7.2875 5.95792,14.32491 6.47592,15.63869 0.518,1.31378 1.14106,2.18944 1.38458,1.94593 0.24352,-0.24352 2.9697,-6.49343 6.05818,-13.88869 z m 64.18875,-3.81727 c 0.89801,-1.44576 3.09963,-4.47636 4.89249,-6.73465 l 3.25975,-4.10599 -14.93236,6.10599 c -14.41558,5.89468 -17.31052,7.60599 -12.86666,7.60599 3.67509,0 9.08996,3.23786 11.78799,7.04871 l 2.61314,3.69093 1.80645,-5.49116 c 0.99355,-3.02014 2.54119,-6.67406 3.4392,-8.11982 z m -131.51045,8.37298 c 2.62077,-2.62076 5.81483,-4.76165 7.65239,-5.12916 1.73471,-0.34694 3.3473,-0.94352 3.58351,-1.32572 0.23621,-0.3822 -4.61065,-2.76497 -10.77081,-5.29503 -6.16016,-2.53006 -12.95111,-5.34173 -15.09101,-6.24814 l -3.89072,-1.64802 4.65979,5.32221 c 4.23368,4.83553 8.62165,13.67072 8.62165,17.35973 0,2.09439 0.24981,1.94952 5.2352,-3.03587 z M 534.4397,343.72101 c 6.8083,-16.05864 17.76227,-29.77109 32.56591,-40.76679 1.57275,-1.16819 -11.31546,3.7394 -28.64046,10.90575 -17.325,7.16636 -36.63007,15.13621 -42.90017,17.71078 l -11.40016,4.68105 7.27182,0.65805 c 14.44272,1.30696 28.40116,11.17724 34.10833,24.11864 l 2.42018,5.48792 2.1279,-8.6631 c 1.17035,-4.7647 3.17134,-11.12424 4.44665,-14.1323 z m -300.6741,17.40281 c 1.04524,-2.54127 4.57947,-7.48439 7.85386,-10.98473 7.69182,-8.22257 15.69964,-12.31597 25.9099,-13.24449 l 7.33579,-0.66712 -7.5,-3.14791 C 229.18,317.05246 191.96199,301.82164 191.6778,302.10583 c -0.19188,0.19187 1.4686,1.60837 3.68995,3.14776 6.07885,4.21265 16.67874,15.89636 22.15466,24.41994 5.64457,8.7861 10.26826,20.1024 12.04895,29.48934 0.68745,3.62391 1.48478,6.58724 1.77185,6.58518 0.28707,-0.002 1.37715,-2.08296 2.42239,-4.62423 z m 189.32923,-2.01952 c 4.28315,-3.19783 6.45612,-6.82133 7.00363,-11.67875 0.7022,-6.22992 -0.18945,-9.066 -4.27048,-13.58322 -4.30705,-4.76738 -10.14611,-6.56899 -16.02728,-4.94512 -5.33272,1.47243 -8.01412,3.37898 -6.26907,4.45748 0.9441,0.58349 0.61556,0.97643 -1.16856,1.3976 -3.23527,0.76375 -4.96487,4.33845 -4.98318,10.29917 -0.0218,7.0916 3.76151,13.0138 9.98577,15.63133 3.81028,1.60236 12.65803,0.71445 15.72917,-1.57849 z m -2.12269,-7.93429 c -0.93873,-2.44628 -0.7352,-2.7695 0.89301,-1.41821 1.66238,1.37965 1.99022,3 0.60699,3 -0.49116,0 -1.16616,-0.7118 -1.5,-1.58179 z m -8.60699,-9.91821 c -0.70675,-0.85158 -1.06,-1.77333 -0.785,-2.04833 0.275,-0.275 1.07825,0.19675 1.785,1.04833 0.70675,0.85158 1.06,1.77333 0.785,2.04833 -0.275,0.275 -1.07825,-0.19675 -1.785,-1.04833 z m -59.98983,16.25 c 5.78709,-3.93866 7.48983,-7.15579 7.48983,-14.15117 0,-5.31037 -0.42293,-6.809 -2.80169,-9.92772 -3.61076,-4.73394 -7.45759,-6.67111 -13.24752,-6.67111 -8.55795,0 -15.21154,5.37399 -16.92043,13.66632 -1.30037,6.31006 3.60181,16.98767 7.17047,15.61824 1.09215,-0.4191 1.38777,-0.23693 0.89897,0.55396 -1.03068,1.66767 2.9057,3.02235 9.00232,3.09809 3.71993,0.0462 5.9977,-0.54614 8.40805,-2.18661 z m -12.99486,-9.28571 c 0.0273,-1.72154 1.85547,-3.92685 2.62079,-3.16152 0.40967,0.40967 -0.0159,1.50556 -0.94562,2.43533 -0.92977,0.92976 -1.68359,1.25654 -1.67517,0.72619 z m 10.24659,-11.15477 c 0.92977,-0.92976 1.97126,-1.4097 2.31443,-1.06653 0.98418,0.98419 -0.52669,2.75701 -2.34963,2.75701 -1.52648,0 -1.52374,-0.13153 0.0352,-1.69048 z m -20.63322,17.66104 c -2.94767,-3.50311 -4.07761,-8.29534 -3.39139,-14.38341 l 0.48331,-4.2879 -5.74602,2.87132 c -3.49197,1.74496 -8.91147,3.33269 -13.81539,4.04744 l -8.06938,1.17612 16.2051,6.76859 c 8.9128,3.72272 16.35759,6.78404 16.54398,6.80293 0.1864,0.0189 -0.8082,-1.3289 -2.21021,-2.99509 z m 113.83138,-3.06745 12.96005,-5.34306 -7.91325,-1.80408 c -4.35229,-0.99225 -9.73593,-2.87225 -11.96365,-4.17778 l -4.0504,-2.37369 0.004,6.81038 c 0.003,5.62457 -0.41467,7.37674 -2.39863,10.06315 -1.37927,1.86763 -1.8051,3.02184 -1,2.71046 0.77123,-0.29828 7.23425,-2.9467 14.36229,-5.88538 z m -53.03038,-7.28168 c 11.38853,-8.68645 7.03287,-27.15406 -7.096,-30.08643 -4.33429,-0.89956 -10.80068,1.0133 -14.41473,4.26409 -3.06342,2.75551 -6.46265,10.44134 -4.87439,11.02122 0.48252,0.17617 0.62611,1.57635 0.31908,3.1115 -0.93255,4.66275 3.79686,11.53576 9.63687,14.00478 4.12296,1.74309 12.69161,0.53562 16.42917,-2.31516 z m -2.42968,-15.62143 c 0,-1.25292 1.06124,-1.25292 3,0 1.21296,0.78387 1.06944,0.9723 -0.75,0.98469 -1.2375,0.008 -2.25,-0.43469 -2.25,-0.98469 z m -13.26903,-0.65594 c 0.67703,-0.27392 2.02703,-0.29059 3,-0.0371 0.97297,0.25354 0.41903,0.47766 -1.23097,0.49804 -1.65,0.0204 -2.44606,-0.18706 -1.76903,-0.46099 z m 94.60142,12.6247 c 14.72576,-6.22764 19.02918,-9.90333 24.4046,-20.84477 2.50904,-5.10705 2.76301,-6.63507 2.76301,-16.62399 0,-9.85722 -0.28007,-11.59762 -2.69589,-16.75263 -3.75892,-8.02103 -11.67577,-16.06657 -19.69362,-20.01374 -6.19931,-3.05191 -7.18779,-3.23363 -17.58946,-3.23363 -10.15913,0 -11.49026,0.22937 -17.02103,2.93296 -17.86774,8.73423 -27.27926,29.766 -21.6352,48.34782 2.50472,8.24626 8.86239,17.39658 15.06251,21.67882 5.98928,4.13663 16.41395,7.48364 23.40508,7.51458 4.29287,0.019 7.72434,-0.7743 13,-3.00542 z m 7.16761,-14.96876 c -0.37544,-1.1829 -0.45761,-2.37572 -0.18261,-2.65072 0.275,-0.275 0.80717,0.46782 1.18261,1.65072 0.37544,1.1829 0.45761,2.37572 0.18261,2.65072 -0.275,0.275 -0.80717,-0.46782 -1.18261,-1.65072 z m -7.31667,-11.21667 c -1.40079,-1.40079 -1.545,-2.78333 -0.29032,-2.78333 0.91646,0 2.42476,3.01556 1.81386,3.62646 -0.18711,0.18711 -0.8727,-0.19229 -1.52354,-0.84313 z m -9.18333,-11.28333 c -0.69443,-0.83674 -0.80272,-1.5 -0.24489,-1.5 0.55,0 1.5602,0.675 2.24489,1.5 0.69443,0.83674 0.80272,1.5 0.24489,1.5 -0.55,0 -1.5602,-0.675 -2.24489,-1.5 z m -9.54112,-8.56652 c -0.36253,-0.58659 -0.41903,-1.30665 -0.12555,-1.60014 0.71632,-0.71631 2.66667,0.54583 2.66667,1.72569 0,1.27796 -1.72641,1.19266 -2.54112,-0.12555 z m -10.42992,-7.89441 c -0.80907,-0.51167 -1.13586,-1.2655 -0.72619,-1.67516 0.40967,-0.40967 1.50556,0.0159 2.43533,0.94562 1.80738,1.80739 0.72543,2.26921 -1.70914,0.72954 z m -12.57008,-7.10559 c -1.08933,-1.76258 0.059,-2.0097 2.11412,-0.45494 1.69187,1.27997 1.72067,1.46174 0.23602,1.48967 -0.93004,0.0175 -1.9876,-0.44814 -2.35014,-1.03473 z m -110.14185,59.06621 c 7.64848,-2.88417 17.29427,-11.82637 21.06613,-19.52952 11.16047,-22.79264 0.0621,-48.85157 -24.24357,-56.92396 -7.94224,-2.63776 -20.63609,-1.82719 -28.73928,1.83516 -7.30882,3.30333 -16.1528,11.86557 -19.78058,19.15042 -7.13811,14.33387 -4.42853,33.12622 6.48316,44.964 11.38698,12.35343 29.28372,16.51109 45.21414,10.5039 z m -38.26991,-5.49969 c -0.0245,-1.48594 1.76048,-4.02573 2.38817,-3.39804 0.29923,0.29922 -0.11199,1.41119 -0.91382,2.47104 -0.80182,1.05985 -1.46528,1.477 -1.47435,0.927 z m 6.99872,-13.58565 c 0.61391,-1.1471 1.36033,-1.84151 1.65872,-1.54312 0.82426,0.82426 -0.49605,3.62877 -1.70836,3.62877 -0.73956,0 -0.72434,-0.63946 0.0496,-2.08565 z m 6.95416,-9.79191 c 0,-0.48265 0.675,-1.43775 1.5,-2.12244 1.62821,-1.35129 1.83174,-1.02807 0.89301,1.41821 -0.64255,1.67447 -2.39301,2.18961 -2.39301,0.70423 z m 9.1875,-10.18494 c 0.24063,-0.72188 1.02812,-1.50937 1.75,-1.75 0.75,-0.25 1.125,0.125 0.875,0.875 -0.24063,0.72187 -1.02813,1.50937 -1.75,1.75 -0.75,0.25 -1.125,-0.125 -0.875,-0.875 z m 11.0744,-9.62797 c 0.92977,-0.92976 2.02566,-1.35529 2.43533,-0.94562 0.40967,0.40966 0.0829,1.16349 -0.72619,1.67516 -2.43457,1.53967 -3.51652,1.07785 -1.70914,-0.72954 z m 10.21111,-6.35319 c -0.32508,-0.52598 -0.37629,-0.95633 -0.11381,-0.95633 0.26247,0 1.18903,-0.27314 2.05901,-0.60699 0.86999,-0.33384 1.58179,-0.15699 1.58179,0.39301 0,1.39904 -2.80948,2.33127 -3.52699,1.17031 z m -49.30705,49.35337 c -2.94776,-1.17642 -10.24248,-12.75117 -12.29512,-19.50903 -2.7082,-8.91615 -2.30686,-20.87346 0.9452,-28.16074 l 2.16888,-4.86007 -2.74246,1.81569 c -7.47593,4.94955 -14.15035,8.60168 -19.18222,10.4962 -15.27726,5.75195 -32.37409,8.00683 -46.02859,6.07063 -4.10759,-0.58245 -7.60137,-0.926 -7.76394,-0.76343 -0.39733,0.39734 83.95989,35.5024 85.23229,35.46922 0.55,-0.0143 0.39968,-0.26565 -0.33404,-0.55847 z m 249.33404,-14.62079 c 19.25,-8.00443 36.49581,-15.18734 38.32402,-15.96202 3.08556,-1.30746 2.36817,-1.40889 -10,-1.41389 -21.87421,-0.009 -36.19711,-4.39254 -55.39751,-16.95506 -2.02637,-1.32582 -2.01803,-1.19191 0.36706,5.8927 2.05926,6.11679 2.36183,8.53193 1.93667,15.4589 -0.57701,9.40126 -4.53213,19.32713 -10.03762,25.19073 -1.75594,1.87015 -2.51762,3.1622 -1.69262,2.87121 0.825,-0.29098 17.25,-7.07814 36.5,-15.08257 z m -171.10281,-4.78417 c -4.19466,-10.12261 -7.75785,-18.55007 -7.9182,-18.72769 -0.16036,-0.17763 -0.32578,3.00575 -0.36761,7.07418 -0.0777,7.56043 -1.28072,12.24005 -5.04182,19.61241 l -2.12695,4.16916 3.98117,-0.63661 c 5.9457,-0.95076 10.33887,0.2528 14.68038,4.02186 2.14271,1.86019 4.0137,3.27175 4.15775,3.1368 0.14406,-0.13494 -3.17007,-8.52749 -7.36472,-18.65011 z m 63.40777,13.28202 5.69504,0.4192 -2.82149,-5.65594 c -1.57288,-3.15297 -3.34345,-9.03177 -4.00096,-13.2843 l -1.17947,-7.62837 -5.99904,14.59543 c -3.29947,8.02749 -6.14465,14.98091 -6.32262,15.45205 -0.17796,0.47113 1.75927,-0.30751 4.30497,-1.73033 3.8596,-2.15717 5.57465,-2.5173 10.32357,-2.16774 z m -47.53808,-9.72249 4.45326,-4.03572 -5.70553,-1.68149 c -3.2045,-0.94442 -8.45137,-3.70288 -11.96958,-6.29284 -3.44524,-2.53624 -6.10228,-4.20179 -5.90455,-3.70124 0.19774,0.50056 3.02627,7.33325 6.28563,15.18375 l 5.9261,14.27364 1.23071,-4.85519 c 0.92292,-3.64099 2.34438,-5.86445 5.68396,-8.89091 z m 43.72785,-17.33064 c 0.003,-0.2015 -1.84184,1.30238 -4.09941,3.34197 -4.62914,4.18215 -15.16844,9.52241 -18.79536,9.5236 -2.13598,7e-4 -1.93503,0.33764 1.82652,3.06249 4.16161,3.01465 7.97008,9.3437 8.08642,13.4383 0.0434,1.52637 12.95768,-27.68725 12.98183,-29.36636 z m -14.49473,8.37338 c 21.61888,-10.35163 29.71331,-37.54807 17.32439,-58.20818 -4.07883,-6.80198 -11.93778,-13.40339 -19.5808,-16.44761 -4.54556,-1.8105 -7.73611,-2.29431 -15.29614,-2.31945 -9.06059,-0.0301 -9.94495,0.16217 -17.17162,3.7341 -8.79842,4.34881 -15.15607,10.72857 -19.47417,19.54191 -2.51149,5.126 -2.78954,6.73666 -2.79528,16.19221 -0.006,10.01926 0.1591,10.8434 3.60778,18.00001 3.89791,8.08882 8.87791,13.71712 15.67188,17.71204 7.20605,4.23723 11.91408,5.28979 22.21396,4.96629 8.02983,-0.2522 10.42853,-0.74298 15.5,-3.17132 z m 17.74377,-33.17138 c -0.69093,-0.27855 -1.01402,-0.89837 -0.71798,-1.37738 0.64813,-1.04869 3.47421,-0.11426 3.47421,1.14873 0,0.96323 -0.77475,1.02751 -2.75623,0.22865 z m -67.24377,-2.33564 c 0,-0.55 1.0125,-0.99311 2.25,-0.98469 1.81944,0.0124 1.96296,0.20082 0.75,0.98469 -1.93876,1.25292 -3,1.25292 -3,0 z m 53.5,-2 c -0.33992,-0.55 0.28197,-1 1.38197,-1 1.1,0 2.27811,0.45 2.61803,1 0.33992,0.55 -0.28197,1 -1.38197,1 -1.1,0 -2.27811,-0.45 -2.61803,-1 z m -40.5,-1 c 0,-0.55 0.92656,-1 2.05902,-1 1.13246,0 1.7809,0.45 1.44098,1 -0.33992,0.55 -1.26648,1 -2.05902,1 -0.79254,0 -1.44098,-0.45 -1.44098,-1 z m 27,-1 c 0,-0.55 0.9,-1 2,-1 1.1,0 2,0.45 2,1 0,0.55 -0.9,1 -2,1 -1.1,0 -2,-0.45 -2,-1 z m -13.26903,-0.65594 c 0.67703,-0.27392 2.02703,-0.29059 3,-0.0371 0.97297,0.25354 0.41903,0.47766 -1.23097,0.49804 -1.65,0.0204 -2.44606,-0.18706 -1.76903,-0.46099 z m 197.26903,29.07192 c 32.65242,-8.54246 56.74664,-32.20703 66.20134,-65.02095 1.9486,-6.7628 2.265,-10.11789 2.2064,-23.39503 -0.061,-13.83709 -0.3559,-16.44374 -2.7472,-24.29658 -9.4134,-30.91212 -31.4166,-52.91835 -62.36395,-62.37243 -7.98018,-2.43786 -10.28156,-2.68726 -24.79659,-2.68726 -14.51503,0 -16.81641,0.2494 -24.79659,2.68726 -13.82462,4.22327 -24.32323,10.01344 -35.45879,19.55613 -3.8052,3.26089 -5.09788,4.99986 -4.68461,6.30197 0.414,1.30438 0.16161,1.64133 -0.91885,1.22672 -2.19108,-0.8408 -9.91855,9.38725 -15.17396,20.0842 -13.30388,27.07896 -12.32951,58.6038 2.63299,85.18785 6.03401,10.72069 22.4348,27.1466 33.09355,33.14421 8.92104,5.01982 19.37192,8.86251 29.30626,10.77566 8.97699,1.72878 28.73705,1.1008 37.5,-1.19175 z m 35.18334,-28.63265 c -1.4008,-1.40079 -1.545,-2.78333 -0.2903,-2.78333 0.9164,0 2.4247,3.01556 1.8138,3.62646 -0.1871,0.18711 -0.8727,-0.19229 -1.5235,-0.84313 z m -6.57856,-12.37086 c -0.80441,-2.09626 -0.76663,-2.41247 0.28823,-2.41247 1.2501,0 2.20251,2.82293 1.1681,3.46223 -0.46835,0.28946 -1.12369,-0.18294 -1.45633,-1.04976 z m -7.02133,-12.0556 c -0.95273,-2.48276 0.0974,-2.82177 1.37071,-0.44252 0.6143,1.14784 0.69884,2.08565 0.18801,2.08565 -0.5105,0 -1.21193,-0.73941 -1.55872,-1.64313 z m -7.5125,-10.77138 c -0.74577,-0.8986 -1.05933,-1.93045 -0.69678,-2.29299 0.93392,-0.93393 2.93161,1.29016 2.45178,2.72965 -0.27581,0.82743 -0.81782,0.69257 -1.755,-0.43666 z m -8.07095,-11.08549 c -0.70675,-0.85158 -1.06,-1.77333 -0.785,-2.04833 0.275,-0.275 1.07825,0.19675 1.785,1.04833 0.70675,0.85158 1.06,1.77333 0.785,2.04833 -0.275,0.275 -1.07825,-0.19675 -1.785,-1.04833 z m -8.49445,-10.49387 c -0.99854,-1.10337 -1.35088,-2.00613 -0.78298,-2.00613 1.25825,0 3.7524,2.85836 3.08047,3.5303 -0.26508,0.26508 -1.29895,-0.4208 -2.29749,-1.52417 z m -9.30555,-9.20613 c -1.44583,-1.44583 -1.55957,-2.8 -0.23518,-2.8 0.53065,0 1.44648,0.9 2.03518,2 1.1788,2.20261 0.0876,2.68759 -1.8,0.8 z m -10.2,-10.3 c -0.69443,-0.83674 -0.80272,-1.5 -0.24489,-1.5 0.55,0 1.5602,0.675 2.24489,1.5 0.69443,0.83674 0.80272,1.5 0.24489,1.5 -0.55,0 -1.5602,-0.675 -2.24489,-1.5 z m -9.97104,-8.46093 c -0.80907,-0.51167 -1.13586,-1.2655 -0.72619,-1.67516 0.40967,-0.40967 1.50556,0.0159 2.43533,0.94562 1.80738,1.80739 0.72543,2.26921 -1.70914,0.72954 z m -11.12468,-8.6544 c -1.15986,-1.39754 -1.08641,-1.56608 0.54469,-1.25 1.03691,0.20094 2.07259,0.92784 2.3015,1.61534 0.59396,1.78389 -1.25999,1.54592 -2.84619,-0.36534 z m -10.90428,-7.88466 c -1.35129,-1.62821 -1.02807,-1.83174 1.41821,-0.89301 0.86999,0.33384 1.58179,1.00884 1.58179,1.5 0,1.38323 -1.62035,1.05539 -3,-0.60699 z m -10.97104,-6.46094 c -0.80907,-0.51167 -1.13586,-1.2655 -0.72619,-1.67516 0.40967,-0.40967 1.50556,0.0159 2.43533,0.94562 1.80738,1.80739 0.72543,2.26921 -1.70914,0.72954 z m -11.60196,-6.51759 c -1.69187,-1.27997 -1.72067,-1.46174 -0.23602,-1.48967 0.93004,-0.0175 1.9876,0.44814 2.35014,1.03473 1.08933,1.76258 -0.059,2.0097 -2.11412,0.45494 z M 225.15732,296.16357 c 9.59652,-1.97739 20.7194,-6.22076 29.20783,-11.14275 9.43024,-5.4681 26.36251,-22.72633 31.69866,-32.30889 17.47474,-31.38077 15.62945,-68.8649 -4.82565,-98.02566 -3.63755,-5.18568 -4.46075,-5.8376 -6.75757,-5.35161 -2.38542,0.50474 -2.46219,0.42827 -0.87284,-0.86956 1.60856,-1.3135 1.30086,-1.84204 -4,-6.8709 -10.65706,-10.11023 -24.84763,-17.95955 -39.74259,-21.98311 -11.79882,-3.18719 -32.73732,-3.2038 -44.43317,-0.0352 -26.36034,7.14132 -46.83804,23.74775 -58.79009,47.67592 -6.39481,12.80249 -9.27674,25.45444 -9.27674,40.72581 0,36.64048 22.16419,69.2059 57,83.74896 13.5076,5.63906 35.59462,7.5685 50.79216,4.43699 z M 150.59433,269.5643 c 0.2177,-0.65313 0.93051,-1.36573 1.58401,-1.58356 0.73075,-0.24358 0.95424,0.21359 0.58051,1.1875 -0.69752,1.81771 -2.76448,2.19592 -2.16452,0.39606 z m 5.80263,-11.00348 c -0.0175,-0.93004 0.44814,-1.9876 1.03473,-2.35014 1.76258,-1.08933 2.0097,0.059 0.45494,2.11412 -1.27997,1.69187 -1.46174,1.72067 -1.48967,0.23602 z m 7,-12 c -0.0175,-0.93004 0.44814,-1.9876 1.03473,-2.35014 1.76258,-1.08933 2.0097,0.059 0.45494,2.11412 -1.27997,1.69187 -1.46174,1.72067 -1.48967,0.23602 z m 7.57451,-12.22546 c 0.33422,-0.87096 1.04702,-1.58356 1.58401,-1.58356 1.31439,0 0.49134,2.27278 -1.0035,2.77106 -0.73075,0.24358 -0.95424,-0.21359 -0.58051,-1.1875 z m 7.39369,-9.33867 c 0,-0.55 0.675,-1.5602 1.5,-2.24489 0.83674,-0.69443 1.5,-0.80272 1.5,-0.24489 0,0.55 -0.675,1.5602 -1.5,2.24489 -0.83674,0.69443 -1.5,0.80272 -1.5,0.24489 z m 9,-11 c 0,-0.55 0.675,-1.5602 1.5,-2.24489 0.83674,-0.69443 1.5,-0.80272 1.5,-0.24489 0,0.55 -0.675,1.5602 -1.5,2.24489 -0.83674,0.69443 -1.5,0.80272 -1.5,0.24489 z m 9,-10.06343 c 0,-1.20855 1.8972,-2.61759 2.5907,-1.9241 0.2517,0.2517 -0.22824,1.02686 -1.06653,1.72258 -0.95039,0.78875 -1.52417,0.86462 -1.52417,0.20152 z m 9,-8.94628 c 0,-1.06323 2.14833,-3.23518 3.2,-3.23518 1.55216,0 0.77494,1.94304 -1.2,3 -1.1,0.5887 -2,0.69453 -2,0.23518 z m 10,-9.1648 c 0,-0.55 0.9,-1.48167 2,-2.07037 1.28642,-0.68847 2,-0.71358 2,-0.0704 0,0.55 -0.9,1.48167 -2,2.07037 -1.28642,0.68846 -2,0.71357 -2,0.0704 z m 11,-8.96338 c 0,-0.49116 0.7118,-1.16616 1.58179,-1.5 2.44628,-0.93873 2.7695,-0.7352 1.41821,0.89301 -1.37965,1.66238 -3,1.99022 -3,0.60699 z m 12.02005,-8.63116 c 0.69572,-0.83829 1.47088,-1.31823 1.72258,-1.06653 0.69349,0.6935 -0.71555,2.5907 -1.9241,2.5907 -0.6631,0 -0.58723,-0.57378 0.20152,-1.52417 z m 9.97994,-6.36884 c 0,-1.10907 3.07642,-2.36391 3.86417,-1.57616 0.31785,0.31786 -0.0841,0.99656 -0.89313,1.50823 -1.86986,1.18254 -2.97104,1.20771 -2.97104,0.0679 z m 12.5,-7.10699 c 0.33992,-0.55 1.29303,-1 2.11803,-1 0.825,0 1.22189,0.45 0.88197,1 -0.33992,0.55 -1.29303,1 -2.11803,1 -0.825,0 -1.22189,-0.45 -0.88197,-1 z m 347.72644,128.17584 c 2.5786,-1.15969 3.479,-2.06961 2.9233,-2.95434 -0.6042,-0.96206 -1.7462,-0.52891 -4.6139,1.75 -4.25211,3.37917 -3.82384,3.68427 1.6906,1.20434 z M 438.86515,264.55579 c 6.50401,-3.06988 7.70856,-3.30031 17,-3.25204 7.74091,0.0402 11.18602,0.52681 15.25,2.15393 2.8875,1.15608 5.25,1.98693 5.25,1.84632 0,-0.14062 -2.03115,-3.34814 -4.51366,-7.12784 -10.72035,-16.32203 -16.10044,-39.70633 -13.54808,-58.88611 0.64164,-4.82169 1.03053,-8.89696 0.86418,-9.05617 -0.23654,-0.2264 -31.66206,74.88716 -35.10637,83.91155 -0.54562,1.42959 0.57894,0.75818 3.5,-2.08964 2.36716,-2.3078 7.45393,-5.6828 11.30393,-7.5 z M 316.18194,227.93501 c -10.53703,-25.39631 -19.25839,-46.06441 -19.38081,-45.92914 -0.12241,0.13527 0.44407,3.39594 1.25885,7.24593 2.15591,10.18711 1.27246,33.41727 -1.65432,43.5 -2.36377,8.14318 -8.69975,21.55339 -12.59847,26.66488 -3.13812,4.11428 -3.07708,4.70781 0.30796,2.99499 5.24069,-2.65177 13.338,-3.94189 21.07042,-3.35709 9.15995,0.69277 19.58157,5.4196 25.6146,11.61777 2.16427,2.22351 4.07115,3.90661 4.23752,3.74024 0.16637,-0.16637 -8.31871,-21.08128 -18.85575,-46.47758 z m 23.76321,28.81679 c 4.10977,-10.39111 11.44551,-18.40221 21.29583,-23.25644 l 6.37584,-3.14201 -8.00771,-1.72266 c -10.47827,-2.25414 -21.14006,-6.76013 -30.32571,-12.81656 -8.35692,-5.51001 -19.47901,-15.93037 -23.51882,-22.03494 -1.48066,-2.23742 -2.83644,-3.92371 -3.01285,-3.7473 -0.17641,0.17641 7.42694,19.02887 16.89634,41.89435 l 17.21708,41.57361 0.6501,-6.12402 c 0.35756,-3.36822 1.45101,-8.14903 2.4299,-10.62403 z m 101.09261,-28 c 8.54847,-20.625 15.79138,-38.175 16.09535,-39 0.30397,-0.825 -1.47665,1.2 -3.95694,4.5 -5.19492,6.9118 -14.29927,15.73564 -20.81102,20.16983 -10.21879,6.95849 -26.43382,13.65556 -36.19972,14.95105 l -4.95747,0.65763 6.3286,3.03489 c 7.72703,3.70551 16.44243,12.18331 20.08286,19.53537 1.45666,2.94182 3.20751,8.67574 3.89077,12.74204 l 1.24229,7.39328 1.37131,-3.24204 c 0.75421,-1.78313 8.3655,-20.11705 16.91397,-40.74205 z m -39.5005,-2.39175 c 29.97604,-7.60405 54.07865,-29.66808 63.74076,-58.3496 3.11254,-9.23944 5.34357,-23.24472 3.96707,-24.9033 -0.84574,-1.01906 -0.81074,-1.35534 0.14109,-1.35534 1.76055,0 0.53262,-15.47026 -2.04168,-25.72237 -2.84677,-11.33721 -10.62296,-26.385202 -18.25852,-35.332692 -27.0257,-31.66926 -70.3609,-41.33105 -107.44134,-23.95457 -43.60593,20.43442 -63.47732,70.183322 -46.07929,115.361492 5.92431,15.3839 20.54763,33.40655 34.14894,42.0872 16.52551,10.54692 29.61194,14.35445 49.77264,14.48143 10.20283,0.0643 14.42874,-0.37887 22.05033,-2.31225 z M 297.86515,138.75181 c 0.33992,-0.55 1.26648,-1 2.05902,-1 0.79254,0 1.44098,0.45 1.44098,1 0,0.55 -0.92656,1 -2.05902,1 -1.13246,0 -1.7809,-0.45 -1.44098,-1 z m 159.75,0.33772 c -2.0472,-0.82607 -1.41676,-2.19409 0.75,-1.62747 1.1,0.28766 2,0.92053 2,1.40638 0,0.95338 -0.77982,1.01607 -2.75,0.22109 z m -146.75,-4.33772 c 0.33992,-0.55 1.26648,-1 2.05902,-1 0.79254,0 1.44098,0.45 1.44098,1 0,0.55 -0.92656,1 -2.05902,1 -1.13246,0 -1.7809,-0.45 -1.44098,-1 z m 133.5,0 c -1.21296,-0.78387 -1.06944,-0.9723 0.75,-0.98469 1.2375,-0.008 2.25,0.43469 2.25,0.98469 0,1.25292 -1.06124,1.25292 -3,0 z m -121,-3 c 0,-0.55 0.92656,-1 2.05902,-1 1.13246,0 1.7809,0.45 1.44098,1 -0.33992,0.55 -1.26648,1 -2.05902,1 -0.79254,0 -1.44098,-0.45 -1.44098,-1 z m 108,0 c -1.21296,-0.78387 -1.06944,-0.9723 0.75,-0.98469 1.2375,-0.008 2.25,0.43469 2.25,0.98469 0,1.25292 -1.06124,1.25292 -3,0 z m -95,-2.38337 c 0,-0.21085 0.9,-0.61872 2,-0.90638 1.1,-0.28766 2,-0.11514 2,0.38337 0,0.49851 -0.9,0.90638 -2,0.90638 -1.1,0 -2,-0.17252 -2,-0.38337 z m 80.5,-0.61663 c -0.33992,-0.55 0.28197,-1 1.38197,-1 1.1,0 2.27811,0.45 2.61803,1 0.33992,0.55 -0.28197,1 -1.38197,1 -1.1,0 -2.27811,-0.45 -2.61803,-1 z m -67,-1 c -0.35667,-0.5771 0.5699,-0.99352 2.19098,-0.98469 2.18111,0.0119 2.47372,0.232 1.30902,0.98469 -1.92129,1.24163 -2.73263,1.24163 -3.5,0 z m 53.97301,-0.95633 c 0.32507,-0.52598 1.25163,-0.70283 2.05902,-0.39301 2.06711,0.79323 1.82352,1.34934 -0.59105,1.34934 -1.13246,0 -1.79305,-0.43035 -1.46797,-0.95633 z m -39.72301,-0.70595 c 0.6875,-0.27741 1.8125,-0.27741 2.5,0 0.6875,0.27741 0.125,0.50439 -1.25,0.50439 -1.375,0 -1.9375,-0.22698 -1.25,-0.50439 z m 12.25,-0.33772 c 0,-0.55 0.9,-1 2,-1 1.1,0 2,0.45 2,1 0,0.55 -0.9,1 -2,1 -1.1,0 -2,-0.45 -2,-1 z m 14.47301,0.0437 c 0.32507,-0.52598 1.25163,-0.70283 2.05902,-0.39301 2.06711,0.79323 1.82352,1.34934 -0.59105,1.34934 -1.13246,0 -1.79305,-0.43035 -1.46797,-0.95633 z"
     id="path7748"
     inkscape:connector-curvature="0" />
</svg>
